<mxfile host="app.diagrams.net" modified="2024-08-01T13:19:39.537Z" agent="Mozilla/5.0 (Windows NT 10.0; Win64; x64; rv:128.0) Gecko/20100101 Firefox/128.0" version="24.6.4" etag="11DOQy5ClghOFvO2m99k" type="github">
  <diagram name="Page-1" id="mFK4p7ayTgsl2X00dGdd">
    <mxGraphModel>
      <root>
        <mxCell id="0" />
        <mxCell id="1" parent="0" />
      </root>
    </mxGraphModel>
  </diagram>
</mxfile>
